<svg xmlns="http://www.w3.org/2000/svg" xmlns:xlink="http://www.w3.org/1999/xlink" width="550" zoomAndPan="magnify" viewBox="0 0 375 374.999991" height="290" preserveAspectRatio="xMidYMid meet" version="1.0"><defs><g><g id="id1"/><g id="id2"/></g><clipPath id="id3"><path d="M 143.777344 111.863281 L 231.527344 111.863281 L 231.527344 199.613281 L 143.777344 199.613281 Z M 143.777344 111.863281 " clip-rule="nonzero"/></clipPath></defs><path fill="rgb(32.159424%, 44.309998%, 100%)" d="M 187.246094 161.496094 C 187.058594 161.5625 186.9375 161.738281 186.9375 161.925781 C 186.9375 161.972656 186.941406 162.019531 186.957031 162.066406 C 186.964844 162.085938 187.460938 163.664062 187.460938 165.949219 C 187.460938 166.777344 187.398438 167.699219 187.21875 168.667969 C 187.214844 168.695312 187.210938 168.722656 187.210938 168.75 C 187.210938 168.964844 187.363281 169.152344 187.582031 169.191406 C 187.609375 169.199219 187.636719 169.199219 187.664062 169.199219 C 187.875 169.199219 188.066406 169.046875 188.105469 168.832031 C 188.296875 167.789062 188.363281 166.804688 188.367188 165.925781 C 188.367188 163.523438 187.84375 161.878906 187.8125 161.789062 C 187.738281 161.550781 187.484375 161.421875 187.246094 161.496094 " fill-opacity="1" fill-rule="nonzero"/><path fill="rgb(32.159424%, 44.309998%, 100%)" d="M 185.890625 164.09375 C 185.644531 164.117188 185.464844 164.335938 185.488281 164.582031 C 185.617188 165.933594 185.546875 167.277344 185.28125 168.578125 C 185.230469 168.820312 185.386719 169.058594 185.628906 169.109375 C 185.660156 169.117188 185.691406 169.117188 185.722656 169.117188 C 185.929688 169.117188 186.117188 168.972656 186.160156 168.761719 C 186.449219 167.371094 186.523438 165.9375 186.382812 164.496094 C 186.359375 164.25 186.140625 164.074219 185.890625 164.09375 " fill-opacity="1" fill-rule="nonzero"/><path fill="rgb(32.159424%, 44.309998%, 100%)" d="M 186.199219 158.769531 C 186.335938 158.714844 186.449219 158.617188 186.511719 158.480469 C 186.632812 158.210938 186.488281 158.054688 186.332031 157.964844 C 186.191406 157.882812 186.019531 157.871094 185.871094 157.929688 C 184.871094 158.308594 184.058594 159.03125 183.574219 159.992188 C 183.058594 161.011719 182.964844 162.160156 183.3125 163.226562 C 183.339844 163.3125 183.96875 165.398438 183.441406 168.058594 C 183.394531 168.304688 183.550781 168.539062 183.796875 168.589844 C 183.824219 168.59375 183.851562 168.597656 183.882812 168.597656 C 184.09375 168.597656 184.28125 168.449219 184.324219 168.234375 C 184.882812 165.402344 184.246094 163.203125 184.171875 162.953125 C 183.894531 162.109375 183.96875 161.203125 184.375 160.398438 C 184.757812 159.644531 185.394531 159.074219 186.199219 158.769531 " fill-opacity="1" fill-rule="nonzero"/><path fill="rgb(32.159424%, 44.309998%, 100%)" d="M 181.296875 157.269531 C 181.09375 157.128906 180.8125 157.1875 180.671875 157.390625 C 180.488281 157.667969 180.316406 157.960938 180.164062 158.261719 C 179.183594 160.191406 179.003906 162.351562 179.652344 164.339844 C 179.65625 164.339844 179.738281 164.625 179.792969 165.089844 C 179.820312 165.320312 180.015625 165.488281 180.238281 165.488281 C 180.257812 165.488281 180.273438 165.488281 180.292969 165.484375 C 180.539062 165.457031 180.714844 165.234375 180.6875 164.988281 C 180.625 164.453125 180.527344 164.117188 180.511719 164.070312 C 179.933594 162.300781 180.09375 160.382812 180.964844 158.667969 C 181.101562 158.398438 181.253906 158.140625 181.417969 157.894531 C 181.558594 157.6875 181.503906 157.40625 181.296875 157.269531 " fill-opacity="1" fill-rule="nonzero"/><path fill="rgb(32.159424%, 44.309998%, 100%)" d="M 188.453125 159.820312 C 187.890625 159.535156 187.25 159.484375 186.652344 159.679688 C 185.511719 160.050781 184.832031 161.21875 185.070312 162.390625 C 185.117188 162.632812 185.355469 162.792969 185.597656 162.742188 C 185.84375 162.695312 186 162.457031 185.949219 162.214844 C 185.804688 161.488281 186.226562 160.765625 186.929688 160.535156 C 187.304688 160.414062 187.699219 160.445312 188.046875 160.621094 C 188.394531 160.800781 188.65625 161.101562 188.777344 161.472656 C 189.074219 162.382812 189.714844 164.871094 189.226562 168.257812 C 189.1875 168.503906 189.359375 168.734375 189.605469 168.769531 C 189.628906 168.773438 189.648438 168.773438 189.671875 168.773438 C 189.890625 168.773438 190.082031 168.613281 190.113281 168.386719 C 190.632812 164.8125 189.949219 162.164062 189.628906 161.191406 C 189.433594 160.59375 189.015625 160.105469 188.453125 159.820312 " fill-opacity="1" fill-rule="nonzero"/><path fill="rgb(32.159424%, 44.309998%, 100%)" d="M 185.742188 156.898438 C 186.382812 156.691406 187.042969 156.605469 187.714844 156.648438 C 188.828125 156.71875 189.867188 157.121094 190.71875 157.8125 C 190.914062 157.972656 191.195312 157.941406 191.351562 157.75 C 191.507812 157.554688 191.480469 157.273438 191.285156 157.117188 C 190.285156 156.304688 189.070312 155.832031 187.769531 155.75 C 186.988281 155.703125 186.210938 155.800781 185.464844 156.046875 C 183.894531 156.558594 182.617188 157.652344 181.867188 159.125 C 181.121094 160.597656 180.984375 162.257812 181.484375 163.785156 C 181.503906 163.84375 181.90625 165.203125 181.671875 167.046875 C 181.640625 167.292969 181.816406 167.519531 182.0625 167.550781 C 182.082031 167.550781 182.101562 167.554688 182.117188 167.554688 C 182.339844 167.554688 182.535156 167.390625 182.566406 167.160156 C 182.820312 165.164062 182.394531 163.6875 182.34375 163.515625 C 181.914062 162.207031 182.03125 160.792969 182.671875 159.53125 C 183.308594 158.273438 184.402344 157.339844 185.742188 156.898438 " fill-opacity="1" fill-rule="nonzero"/><path fill="rgb(32.159424%, 44.309998%, 100%)" d="M 187.890625 153.84375 C 186.863281 153.777344 185.847656 153.90625 184.871094 154.226562 C 183.730469 154.597656 182.71875 155.195312 181.855469 156.003906 C 181.671875 156.175781 181.664062 156.460938 181.832031 156.640625 C 182.003906 156.824219 182.289062 156.832031 182.46875 156.660156 C 183.234375 155.945312 184.136719 155.414062 185.148438 155.082031 C 186.019531 154.796875 186.925781 154.683594 187.835938 154.742188 C 190.796875 154.925781 193.308594 156.871094 194.230469 159.691406 C 194.355469 160.082031 194.476562 160.515625 194.585938 160.992188 C 194.632812 161.199219 194.820312 161.339844 195.023438 161.339844 C 195.058594 161.339844 195.089844 161.335938 195.125 161.328125 C 195.367188 161.269531 195.519531 161.03125 195.460938 160.789062 C 195.347656 160.289062 195.21875 159.828125 195.085938 159.414062 C 194.050781 156.238281 191.226562 154.050781 187.890625 153.84375 " fill-opacity="1" fill-rule="nonzero"/><path fill="rgb(32.159424%, 44.309998%, 100%)" d="M 187.265625 170.734375 C 182.15625 170.734375 178.011719 166.589844 178.011719 161.476562 C 178.011719 156.367188 182.15625 152.222656 187.265625 152.222656 C 192.378906 152.222656 196.523438 156.367188 196.523438 161.476562 C 196.523438 166.589844 192.378906 170.734375 187.265625 170.734375 Z M 187.265625 151.25 C 181.617188 151.25 177.039062 155.828125 177.039062 161.476562 C 177.039062 167.128906 181.617188 171.707031 187.265625 171.707031 C 192.917969 171.707031 197.496094 167.128906 197.496094 161.476562 C 197.496094 155.828125 192.917969 151.25 187.265625 151.25 " fill-opacity="1" fill-rule="nonzero"/><path fill="rgb(32.159424%, 44.309998%, 100%)" d="M 187.816406 157.671875 C 187.5625 157.652344 187.347656 157.828125 187.324219 158.074219 C 187.296875 158.320312 187.476562 158.542969 187.726562 158.566406 C 189.054688 158.699219 190.179688 159.609375 190.59375 160.878906 C 191.175781 162.667969 191.417969 164.980469 191.25 167.230469 C 191.230469 167.476562 191.417969 167.695312 191.664062 167.710938 L 191.699219 167.714844 C 191.929688 167.714844 192.128906 167.535156 192.144531 167.296875 C 192.320312 164.933594 192.066406 162.496094 191.449219 160.597656 C 190.921875 158.988281 189.496094 157.839844 187.816406 157.671875 " fill-opacity="1" fill-rule="nonzero"/><path fill="rgb(32.159424%, 44.309998%, 100%)" d="M 192.359375 158.238281 C 192.210938 158.039062 191.929688 157.996094 191.730469 158.144531 C 191.53125 158.292969 191.488281 158.574219 191.636719 158.773438 C 191.972656 159.230469 192.234375 159.738281 192.410156 160.285156 C 192.875 161.703125 193.15625 163.476562 193.199219 165.277344 C 193.207031 165.523438 193.40625 165.714844 193.648438 165.714844 L 193.660156 165.714844 C 193.90625 165.710938 194.105469 165.503906 194.097656 165.253906 C 194.050781 163.371094 193.757812 161.503906 193.265625 160.007812 C 193.058594 159.367188 192.753906 158.773438 192.359375 158.238281 " fill-opacity="1" fill-rule="nonzero"/><g clip-path="url(#id3)"><path fill="rgb(32.159424%, 44.309998%, 100%)" d="M 206.335938 172.09375 C 206.335938 174.519531 204.367188 176.488281 201.9375 176.488281 L 175.179688 176.488281 C 175.113281 176.5 175.046875 176.507812 174.980469 176.507812 L 158.894531 176.507812 C 158.132812 176.507812 157.515625 175.878906 157.53125 175.113281 C 157.542969 174.363281 158.1875 173.773438 158.941406 173.773438 L 173.03125 173.773438 C 173.78125 173.773438 174.429688 173.183594 174.441406 172.433594 C 174.457031 171.667969 173.839844 171.042969 173.078125 171.042969 L 165.449219 171.042969 C 164.6875 171.042969 164.070312 170.417969 164.085938 169.648438 C 164.097656 168.898438 164.742188 168.308594 165.496094 168.308594 L 170.003906 168.308594 C 170.757812 168.308594 171.402344 167.722656 171.417969 166.96875 C 171.429688 166.203125 170.8125 165.578125 170.050781 165.578125 L 157.046875 165.578125 C 156.285156 165.578125 155.667969 164.953125 155.679688 164.183594 C 155.695312 163.433594 156.339844 162.84375 157.09375 162.84375 L 174.085938 162.84375 C 174.847656 162.84375 175.464844 162.21875 175.449219 161.453125 C 175.4375 160.699219 174.792969 160.113281 174.039062 160.113281 L 162.03125 160.113281 C 161.269531 160.113281 160.652344 159.488281 160.667969 158.722656 C 160.679688 157.96875 161.328125 157.378906 162.078125 157.378906 L 166.480469 157.378906 C 167.429688 157.378906 168.199219 156.609375 168.199219 155.660156 L 168.199219 150.863281 C 168.199219 148.433594 170.167969 146.464844 172.597656 146.464844 L 201.9375 146.464844 C 204.367188 146.464844 206.335938 148.4375 206.335938 150.863281 Z M 152.488281 158.746094 C 152.488281 157.992188 153.097656 157.378906 153.855469 157.378906 L 156.164062 157.378906 C 156.917969 157.378906 157.53125 157.992188 157.53125 158.746094 C 157.53125 159.5 156.917969 160.113281 156.164062 160.113281 L 153.855469 160.113281 C 153.097656 160.113281 152.488281 159.5 152.488281 158.746094 Z M 173.695312 139.152344 C 173.695312 132.453125 179.144531 127.003906 185.84375 127.003906 L 188.695312 127.003906 C 195.390625 127.003906 200.839844 132.453125 200.839844 139.152344 L 200.839844 145.753906 L 196.570312 145.753906 L 196.570312 139.152344 C 196.570312 134.808594 193.035156 131.273438 188.695312 131.273438 L 185.84375 131.273438 C 181.5 131.273438 177.964844 134.808594 177.964844 139.152344 L 177.964844 145.753906 L 173.695312 145.753906 Z M 187.652344 111.863281 C 163.417969 111.863281 143.773438 131.507812 143.773438 155.738281 C 143.773438 179.972656 163.417969 199.617188 187.652344 199.617188 C 211.882812 199.617188 231.527344 179.972656 231.527344 155.738281 C 231.527344 131.507812 211.882812 111.863281 187.652344 111.863281 " fill-opacity="1" fill-rule="nonzero"/></g><g fill="rgb(21.958923%, 71.369934%, 100%)" fill-opacity="1"><g transform="translate(74.559887, 240.979803)"><g><path d="M 2.34375 0 L 2.34375 -26.203125 L 10.40625 -26.203125 C 12.707031 -26.203125 14.765625 -25.679688 16.578125 -24.640625 C 18.398438 -23.609375 19.820312 -22.132812 20.84375 -20.21875 C 21.863281 -18.300781 22.375 -16.128906 22.375 -13.703125 L 22.375 -12.484375 C 22.375 -10.054688 21.867188 -7.894531 20.859375 -6 C 19.859375 -4.101562 18.445312 -2.628906 16.625 -1.578125 C 14.800781 -0.535156 12.742188 -0.0078125 10.453125 0 Z M 7.734375 -21.828125 L 7.734375 -4.34375 L 10.34375 -4.34375 C 12.457031 -4.34375 14.070312 -5.03125 15.1875 -6.40625 C 16.300781 -7.789062 16.875 -9.765625 16.90625 -12.328125 L 16.90625 -13.71875 C 16.90625 -16.375 16.351562 -18.390625 15.25 -19.765625 C 14.144531 -21.140625 12.53125 -21.828125 10.40625 -21.828125 Z M 7.734375 -21.828125 "/></g></g></g><g fill="rgb(21.958923%, 71.369934%, 100%)" fill-opacity="1"><g transform="translate(102.014931, 240.979803)"><g><path d="M 18.109375 -11.359375 L 7.734375 -11.359375 L 7.734375 -4.34375 L 19.90625 -4.34375 L 19.90625 0 L 2.34375 0 L 2.34375 -26.203125 L 19.875 -26.203125 L 19.875 -21.828125 L 7.734375 -21.828125 L 7.734375 -15.59375 L 18.109375 -15.59375 Z M 18.109375 -11.359375 "/></g></g></g><g fill="rgb(21.958923%, 71.369934%, 100%)" fill-opacity="1"><g transform="translate(126.248715, 240.979803)"><g><path d="M 22.90625 -8.734375 C 22.707031 -5.910156 21.664062 -3.6875 19.78125 -2.0625 C 17.90625 -0.445312 15.429688 0.359375 12.359375 0.359375 C 9.003906 0.359375 6.363281 -0.769531 4.4375 -3.03125 C 2.507812 -5.289062 1.546875 -8.394531 1.546875 -12.34375 L 1.546875 -13.953125 C 1.546875 -16.472656 1.988281 -18.691406 2.875 -20.609375 C 3.769531 -22.523438 5.039062 -23.992188 6.6875 -25.015625 C 8.332031 -26.046875 10.25 -26.5625 12.4375 -26.5625 C 15.457031 -26.5625 17.890625 -25.75 19.734375 -24.125 C 21.585938 -22.507812 22.660156 -20.238281 22.953125 -17.3125 L 17.546875 -17.3125 C 17.410156 -19 16.9375 -20.222656 16.125 -20.984375 C 15.320312 -21.753906 14.09375 -22.140625 12.4375 -22.140625 C 10.632812 -22.140625 9.285156 -21.492188 8.390625 -20.203125 C 7.503906 -18.910156 7.046875 -16.910156 7.015625 -14.203125 L 7.015625 -12.21875 C 7.015625 -9.382812 7.441406 -7.3125 8.296875 -6 C 9.160156 -4.695312 10.515625 -4.046875 12.359375 -4.046875 C 14.023438 -4.046875 15.269531 -4.425781 16.09375 -5.1875 C 16.914062 -5.945312 17.390625 -7.128906 17.515625 -8.734375 Z M 22.90625 -8.734375 "/></g></g></g><g fill="rgb(21.958923%, 71.369934%, 100%)" fill-opacity="1"><g transform="translate(153.865716, 240.979803)"><g><path d="M 12.046875 -9.59375 L 7.734375 -9.59375 L 7.734375 0 L 2.34375 0 L 2.34375 -26.203125 L 12.078125 -26.203125 C 15.171875 -26.203125 17.554688 -25.507812 19.234375 -24.125 C 20.921875 -22.75 21.765625 -20.800781 21.765625 -18.28125 C 21.765625 -16.5 21.375 -15.007812 20.59375 -13.8125 C 19.820312 -12.613281 18.648438 -11.660156 17.078125 -10.953125 L 22.75 -0.25 L 22.75 0 L 16.953125 0 Z M 7.734375 -13.96875 L 12.09375 -13.96875 C 13.445312 -13.96875 14.492188 -14.3125 15.234375 -15 C 15.984375 -15.6875 16.359375 -16.640625 16.359375 -17.859375 C 16.359375 -19.085938 16.003906 -20.054688 15.296875 -20.765625 C 14.597656 -21.472656 13.523438 -21.828125 12.078125 -21.828125 L 7.734375 -21.828125 Z M 7.734375 -13.96875 "/></g></g></g><g fill="rgb(21.958923%, 71.369934%, 100%)" fill-opacity="1"><g transform="translate(180.88886, 240.979803)"><g><path d="M 11.375 -14.390625 L 16.828125 -26.203125 L 22.734375 -26.203125 L 14.125 -9.5 L 14.125 0 L 8.640625 0 L 8.640625 -9.5 L 0.03125 -26.203125 L 5.953125 -26.203125 Z M 11.375 -14.390625 "/></g></g></g><g fill="rgb(21.958923%, 71.369934%, 100%)" fill-opacity="1"><g transform="translate(207.174175, 240.979803)"><g><path d="M 7.734375 -9.234375 L 7.734375 0 L 2.34375 0 L 2.34375 -26.203125 L 12.5625 -26.203125 C 14.53125 -26.203125 16.257812 -25.84375 17.75 -25.125 C 19.25 -24.40625 20.398438 -23.378906 21.203125 -22.046875 C 22.003906 -20.722656 22.40625 -19.21875 22.40625 -17.53125 C 22.40625 -14.957031 21.523438 -12.929688 19.765625 -11.453125 C 18.015625 -9.972656 15.582031 -9.234375 12.46875 -9.234375 Z M 7.734375 -13.609375 L 12.5625 -13.609375 C 13.988281 -13.609375 15.078125 -13.941406 15.828125 -14.609375 C 16.578125 -15.285156 16.953125 -16.25 16.953125 -17.5 C 16.953125 -18.78125 16.570312 -19.816406 15.8125 -20.609375 C 15.0625 -21.398438 14.019531 -21.804688 12.6875 -21.828125 L 7.734375 -21.828125 Z M 7.734375 -13.609375 "/></g></g></g><g fill="rgb(21.958923%, 71.369934%, 100%)" fill-opacity="1"><g transform="translate(234.449267, 240.979803)"><g><path d="M 22.0625 -21.828125 L 14.03125 -21.828125 L 14.03125 0 L 8.640625 0 L 8.640625 -21.828125 L 0.71875 -21.828125 L 0.71875 -26.203125 L 22.0625 -26.203125 Z M 22.0625 -21.828125 "/></g></g></g><g fill="rgb(21.958923%, 71.369934%, 100%)" fill-opacity="1"><g transform="translate(260.752571, 240.979803)"><g><path d="M 8.078125 0 L 2.6875 0 L 2.6875 -26.203125 L 8.078125 -26.203125 Z M 8.078125 0 "/></g></g></g><g fill="rgb(21.958923%, 71.369934%, 100%)" fill-opacity="1"><g transform="translate(274.998679, 240.979803)"><g><path d="M 23.859375 -12.515625 C 23.859375 -9.929688 23.398438 -7.664062 22.484375 -5.71875 C 21.578125 -3.78125 20.273438 -2.28125 18.578125 -1.21875 C 16.878906 -0.164062 14.9375 0.359375 12.75 0.359375 C 10.570312 0.359375 8.628906 -0.160156 6.921875 -1.203125 C 5.222656 -2.242188 3.90625 -3.734375 2.96875 -5.671875 C 2.03125 -7.609375 1.554688 -9.835938 1.546875 -12.359375 L 1.546875 -13.65625 C 1.546875 -16.238281 2.007812 -18.507812 2.9375 -20.46875 C 3.875 -22.4375 5.191406 -23.941406 6.890625 -24.984375 C 8.585938 -26.035156 10.523438 -26.5625 12.703125 -26.5625 C 14.890625 -26.5625 16.832031 -26.035156 18.53125 -24.984375 C 20.226562 -23.941406 21.539062 -22.4375 22.46875 -20.46875 C 23.394531 -18.507812 23.859375 -16.242188 23.859375 -13.671875 Z M 18.390625 -13.703125 C 18.390625 -16.441406 17.894531 -18.523438 16.90625 -19.953125 C 15.925781 -21.378906 14.523438 -22.09375 12.703125 -22.09375 C 10.890625 -22.09375 9.488281 -21.390625 8.5 -19.984375 C 7.519531 -18.578125 7.023438 -16.507812 7.015625 -13.78125 L 7.015625 -12.515625 C 7.015625 -9.835938 7.503906 -7.757812 8.484375 -6.28125 C 9.472656 -4.800781 10.894531 -4.0625 12.75 -4.0625 C 14.550781 -4.0625 15.9375 -4.769531 16.90625 -6.1875 C 17.882812 -7.613281 18.378906 -9.691406 18.390625 -12.421875 Z M 18.390625 -13.703125 "/></g></g></g><g fill="rgb(27.059937%, 41.958618%, 70.199585%)" fill-opacity="1"><g transform="translate(147.301725, 261.192182)"><g><path d="M 6.65625 -6.6875 L 2.359375 -6.6875 L 2.359375 -4.5625 L 6.203125 -4.5625 L 6.203125 -3.359375 L 2.359375 -3.359375 L 2.359375 -1.1875 L 6.796875 -1.1875 L 6.796875 0 L 1.03125 0 L 1.03125 -7.875 L 6.65625 -7.875 Z M 6.65625 -6.6875 "/></g></g></g><g fill="rgb(27.059937%, 41.958618%, 70.199585%)" fill-opacity="1"><g transform="translate(156.894129, 261.192182)"><g><path d="M 4.6875 -4.09375 L 7.546875 0 L 5.96875 0 L 3.84375 -2.96875 L 1.71875 0 L 0.171875 0 L 3.03125 -4.03125 L 0.375 -7.875 L 1.90625 -7.875 L 3.84375 -5.140625 L 5.765625 -7.875 L 7.328125 -7.875 Z M 4.6875 -4.09375 "/></g></g></g><g fill="rgb(27.059937%, 41.958618%, 70.199585%)" fill-opacity="1"><g transform="translate(166.891311, 261.192182)"><g><path d="M 4.515625 -7.90625 C 5.078125 -7.90625 5.617188 -7.796875 6.140625 -7.578125 C 6.671875 -7.367188 7.128906 -7.070312 7.515625 -6.6875 L 6.734375 -5.71875 C 6.453125 -6.03125 6.113281 -6.273438 5.71875 -6.453125 C 5.332031 -6.640625 4.941406 -6.734375 4.546875 -6.734375 C 3.753906 -6.734375 3.085938 -6.460938 2.546875 -5.921875 C 2.003906 -5.390625 1.734375 -4.734375 1.734375 -3.953125 C 1.734375 -3.179688 2.003906 -2.523438 2.546875 -1.984375 C 3.085938 -1.453125 3.753906 -1.1875 4.546875 -1.1875 C 5.359375 -1.1875 6.085938 -1.492188 6.734375 -2.109375 L 7.53125 -1.234375 C 7.125 -0.835938 6.648438 -0.519531 6.109375 -0.28125 C 5.566406 -0.0507812 5.023438 0.0625 4.484375 0.0625 C 3.328125 0.0625 2.351562 -0.320312 1.5625 -1.09375 C 0.769531 -1.863281 0.375 -2.816406 0.375 -3.953125 C 0.375 -5.066406 0.773438 -6.003906 1.578125 -6.765625 C 2.378906 -7.523438 3.359375 -7.90625 4.515625 -7.90625 Z M 4.515625 -7.90625 "/></g></g></g><g fill="rgb(27.059937%, 41.958618%, 70.199585%)" fill-opacity="1"><g transform="translate(176.944704, 261.192182)"><g><path d="M 7.859375 0 L 6.53125 0 L 6.53125 -3.265625 L 2.359375 -3.265625 L 2.359375 0 L 1.03125 0 L 1.03125 -7.875 L 2.359375 -7.875 L 2.359375 -4.453125 L 6.53125 -4.453125 L 6.53125 -7.875 L 7.859375 -7.875 Z M 7.859375 0 "/></g></g></g><g fill="rgb(27.059937%, 41.958618%, 70.199585%)" fill-opacity="1"><g transform="translate(188.055009, 261.192182)"><g><path d="M 6.125 -1.78125 L 2.15625 -1.78125 L 1.390625 0 L 0.015625 0 L 3.484375 -7.875 L 4.84375 -7.875 L 8.296875 0 L 6.875 0 Z M 5.609375 -2.953125 L 4.125 -6.453125 L 2.640625 -2.953125 Z M 5.609375 -2.953125 "/></g></g></g><g fill="rgb(27.059937%, 41.958618%, 70.199585%)" fill-opacity="1"><g transform="translate(198.569403, 261.192182)"><g><path d="M 7.859375 0 L 6.5625 0 L 2.359375 -5.640625 L 2.359375 0 L 1.03125 0 L 1.03125 -7.875 L 2.34375 -7.875 L 6.5625 -2.21875 L 6.5625 -7.875 L 7.859375 -7.875 Z M 7.859375 0 "/></g></g></g><g fill="rgb(27.059937%, 41.958618%, 70.199585%)" fill-opacity="1"><g transform="translate(209.690945, 261.192182)"><g><path d="M 6.421875 -3.875 L 7.578125 -3.875 L 7.578125 -0.96875 C 7.171875 -0.65625 6.691406 -0.40625 6.140625 -0.21875 C 5.597656 -0.03125 5.054688 0.0625 4.515625 0.0625 C 3.359375 0.0625 2.378906 -0.320312 1.578125 -1.09375 C 0.773438 -1.863281 0.375 -2.8125 0.375 -3.9375 C 0.375 -5.0625 0.78125 -6.003906 1.59375 -6.765625 C 2.40625 -7.523438 3.40625 -7.90625 4.59375 -7.90625 C 5.15625 -7.90625 5.703125 -7.804688 6.234375 -7.609375 C 6.773438 -7.410156 7.238281 -7.144531 7.625 -6.8125 L 6.875 -5.828125 C 6.226562 -6.429688 5.46875 -6.734375 4.59375 -6.734375 C 3.789062 -6.734375 3.113281 -6.460938 2.5625 -5.921875 C 2.007812 -5.378906 1.734375 -4.71875 1.734375 -3.9375 C 1.734375 -3.144531 2.007812 -2.476562 2.5625 -1.9375 C 3.125 -1.40625 3.804688 -1.140625 4.609375 -1.140625 C 5.222656 -1.140625 5.828125 -1.316406 6.421875 -1.671875 Z M 6.421875 -3.875 "/></g></g></g><g fill="rgb(27.059937%, 41.958618%, 70.199585%)" fill-opacity="1"><g transform="translate(220.329011, 261.192182)"><g><path d="M 6.65625 -6.6875 L 2.359375 -6.6875 L 2.359375 -4.5625 L 6.203125 -4.5625 L 6.203125 -3.359375 L 2.359375 -3.359375 L 2.359375 -1.1875 L 6.796875 -1.1875 L 6.796875 0 L 1.03125 0 L 1.03125 -7.875 L 6.65625 -7.875 Z M 6.65625 -6.6875 "/></g></g></g></svg>